<svg width="800" height="600" xmlns="http://www.w3.org/2000/svg">
 <g id="Layer_1">
  <title>Layer 1</title>
  <rect id="svg_2" height="132" width="264" y="147.2" x="57" stroke="#000" fill="#fff"/>
  <rect stroke="#000" id="svg_3" height="132" width="52" y="147" x="321" fill="#fff"/>
  <rect stroke="#000" id="svg_4" height="132" width="65" y="147" x="373" fill="#fff"/>
  <rect stroke="#000" id="svg_5" height="132" width="197.00001" y="147" x="438" fill="#fff"/>
  <rect stroke="#000" id="svg_6" height="132" width="145.00001" y="147" x="635" fill="#fff"/>
  <rect stroke="#000" id="svg_8" height="132" width="65" y="319" x="570" fill="#fff"/>
  <rect stroke="#000" id="svg_9" height="132" width="66.00001" y="319" x="504" fill="#fff"/>
  <rect stroke="#000" id="svg_10" height="132" width="67" y="319" x="438" fill="#fff"/>
  <rect stroke="#000" id="svg_11" height="132" width="66" y="319" x="372" fill="#fff"/>
  <rect id="svg_13" height="132" width="131" y="319.2" x="187.6" stroke="#000" fill="#fff"/>
  <path stroke="#000" id="svg_15" d="m136,319l52,0l0,132l-52,0l0,-132z" opacity="undefined" fill="#fff"/>
  <rect id="svg_12" height="26" width="52" y="425.2" x="161.6" stroke="#000" fill="#fff"/>
  <rect id="svg_16" height="40" width="53" y="279.2" x="726.6" stroke="#000" fill="#fff"/>
  <path stroke="#000" id="svg_17" d="m57,319l79,0l0,132l-79,0l0,-132z" opacity="undefined" fill="#fff"/>
  <line id="svg_20" y2="303.2" x2="693.6" y1="303.2" x1="670.6" stroke-dasharray="5,5" stroke="#000" fill="none"/>
  <line id="svg_21" y2="424.2" x2="346.6" y1="405.2" x1="345.6" stroke-dasharray="5,5" stroke="#000" fill="none"/>
  <line id="svg_22" y2="318.2" x2="673.6" y1="319.2" x1="634.6" stroke-dasharray="2,2" stroke="#000" fill="none"/>
  <line id="svg_23" y2="318.2" x2="55.6" y1="279.2" x1="56.6" stroke-dasharray="2,2" stroke="#000" fill="none"/>
  <line id="svg_24" y2="451.2" x2="371.6" y1="451.2" x1="318.6" stroke="#000" fill="none"/>
 </g>

</svg>