<svg width="800.0000000000001" height="600" xmlns="http://www.w3.org/2000/svg">
 <g id="Layer_1">
  <title>Layer 1</title>
  <rect fill="#fff" stroke="#000" x="626.66197" y="231.19755" width="138" height="45.33313" id="svg_3"/>
  <rect fill="#fff" x="626.66197" y="276.33336" width="138" height="81.33296" id="svg_4" stroke="#000"/>
  <rect fill="#fff" x="626.66197" y="357" width="138" height="57.33307" id="svg_5" stroke="#000"/>
  <rect fill="#fff" stroke="#000" x="580.66218" y="372.66357" width="46" height="41.33314" id="svg_6"/>
  <rect fill="#fff" stroke="#000" x="487.99594" y="346.53035" width="92.66624" height="67.33303" id="svg_8"/>
  <rect fill="#fff" stroke="#000" x="509.99583" y="300.53056" width="70.66634" height="45.99979" id="svg_9"/>
  <rect fill="#fff" stroke="#000" x="487.99594" y="230.53088" width="92.66624" height="69.99968" id="svg_11"/>
  <rect fill="#fff" stroke="#000" x="450.66277" y="230.53088" width="37.33316" height="45.99979" id="svg_12"/>
  <rect fill="#fff" stroke="#000" x="395.32969" y="231" width="45" height="45" id="svg_13"/>
  <rect fill="#fff" x="303" y="231.19755" width="92.5" height="45" id="svg_14" stroke="#000"/>
  <rect fill="#fff" stroke="#000" x="302.66345" y="295.86392" width="72" height="118" id="svg_15"/>
  <rect fill="#fff" x="487.99594" y="300.53056" width="21.9999" height="58" id="svg_7" stroke="#000"/>
  <rect fill="#fff" stroke="#000" x="210" y="231" width="93" height="91" id="svg_18"/>
  <rect fill="#fff" stroke="#000" x="209.99721" y="253.86411" width="44.66646" height="68" id="svg_17"/>
  <rect fill="#fff" stroke="#000" x="209.99721" y="321.8638" width="92.66624" height="46.66645" id="svg_19"/>
  <rect fill="#fff" x="209.99721" y="368.33334" width="92.66624" height="45.33312" id="svg_20" stroke="#000"/>
  <rect fill="#fff" x="163.66668" y="231" width="46.33333" height="45" id="svg_21" stroke="#000"/>
  <rect fill="#fff" x="70.33332" y="231" width="46.33333" height="45" id="svg_22" stroke="#000"/>
  <rect fill="#fff" x="24.66472" y="230.53088" width="45.99979" height="91.33292" id="svg_23" stroke="#000"/>
  <rect fill="#fff" stroke="#000" x="24.66472" y="321.8638" width="46" height="22.66656" id="svg_24"/>
  <rect fill="#fff" stroke="#000" x="24.66472" y="343.8637" width="46" height="70.66634" id="svg_25"/>
  <line fill="none" stroke="#000" x1="149.99748" y1="275.86401" x2="115.99764" y2="275.86401" id="svg_26"/>
  <line fill="none" stroke="#000" stroke-dasharray="5,5" x1="143.99751" y1="249.86413" x2="143.33085" y2="275.86401" id="svg_27"/>
  <line fill="none" stroke="#000" stroke-dasharray="5,5" x1="131.3309" y1="248.5308" x2="130.66424" y2="263.86407" id="svg_28"/>
  <line fill="none" stroke="#000" stroke-dasharray="5,5" x1="83.99778" y1="291.19727" x2="92.66441" y2="291.19727" id="svg_29"/>
  <line fill="none" x1="421.99624" y1="291.19727" x2="422" y2="409.8634" id="svg_30" stroke="#000"/>
  <line fill="none" x1="421.32957" y1="410.53006" x2="471.32935" y2="410.33334" id="svg_31" stroke="#000"/>
  <line fill="none" stroke="#000" stroke-dasharray="2,2" x1="69.99785" y1="414.53004" x2="209.99721" y2="413.86338" id="svg_32"/>
  <rect id="svg_1" height="40" width="34.66665" y="299.86634" x="437.33282" stroke="#000" fill="#fff"/>
  <rect id="svg_10" height="40" width="34.66665" y="339.66667" x="437.33282" stroke="#000" fill="#fff"/>
 </g>

</svg>